<svg height="128" width="128" xmlns="http://www.w3.org/2000/svg"><rect x="2" y="2" width="124" height="124" rx="14" fill="#363d52" stroke="#212532" stroke-width="4"/><g transform="translate(12, 12) scale(0.4)"><path d="M130 70c0-33.137-26.863-60-60-60S10 36.863 10 70c0 27.614 18.653 50.861 44.063 57.854v-44.17H40.41V70h13.654V55.29c0-13.478 8.027-20.922 20.319-20.922 5.886 0 12.04.99 12.04.99v13.23h-6.784c-6.683 0-8.767 4.146-8.767 8.4V70h14.899l-2.382 13.684h-12.517v44.17C111.347 120.861 130 97.614 130 70" fill="#478cbf"/></g></svg>
